<?xml version="1.0" encoding="UTF-8" standalone="no"?><!DOCTYPE svg PUBLIC "-//W3C//DTD SVG 1.1//EN" "http://www.w3.org/Graphics/SVG/1.1/DTD/svg11.dtd"><svg x="0" y="0" viewBox="0 0 1000 180" width="1000" height="180" version="1.1" xmlns="http://www.w3.org/2000/svg" xmlns:xlink="http://www.w3.org/1999/xlink" style="display: block;margin-left: auto;margin-right: auto;"><g><use fill="#000000" stroke="#000000" stroke-width="0"  fill-opacity="1" stroke-opacity="1" transform="matrix(1,0,0,1,948.1047886606572,131.7304466508454) scale(0.225,0.225)" xlink:href="#f0_1187" x="-59.08203125" y="157.89713541666666"/></g><g><use fill="#000000" stroke="#000000" stroke-width="0"  fill-opacity="1" stroke-opacity="1" transform="matrix(1,0,0,1,814.3334412893886,92.47084789641514) scale(0.225,0.225)" xlink:href="#f0_234" x="-729.98046875" y="157.89713541666666"/><use fill="#000000" stroke="#000000" stroke-width="0"  fill-opacity="1" stroke-opacity="1" transform="matrix(1,0,0,1,814.3334412893886,92.47084789641514) scale(0.225,0.225)" xlink:href="#f0_400" x="-280.76171875" y="164.73307291666666"/><use fill="#000000" stroke="#000000" stroke-width="0"  fill-opacity="1" stroke-opacity="1" transform="matrix(1,0,0,1,814.3334412893886,92.47084789641514) scale(0.225,0.225)" xlink:href="#f0_692" x="65.4296875" y="164.73307291666666"/></g><g><use fill="#000000" stroke="#000000" stroke-width="0"  fill-opacity="1" stroke-opacity="1" transform="matrix(1,0,0,1,605.9459307675614,92.47084789641514) scale(0.225,0.225)" xlink:href="#f0_372" x="-383.7890625" y="10.436197916666666"/><use fill="#000000" stroke="#000000" stroke-width="0"  fill-opacity="1" stroke-opacity="1" transform="matrix(1,0,0,1,605.9459307675614,92.47084789641514) scale(0.225,0.225)" xlink:href="#f0_601" x="163.0859375" y="10.436197916666666"/></g><g><use fill="#000000" stroke="#000000" stroke-width="0"  fill-opacity="1" stroke-opacity="1" transform="matrix(1,0,0,1,458.23474912693644,92.47084789641514) scale(0.225,0.225)" xlink:href="#f0_234" x="-438.720703125" y="157.89713541666666"/><use fill="#000000" stroke="#000000" stroke-width="0"  fill-opacity="1" stroke-opacity="1" transform="matrix(1,0,0,1,458.23474912693644,92.47084789641514) scale(0.225,0.225)" xlink:href="#f0_1321" x="10.498046875" y="143.24869791666666"/><use fill="#000000" stroke="#000000" stroke-width="0"  fill-opacity="1" stroke-opacity="1" transform="matrix(1,0,0,1,458.23474912693644,92.47084789641514) scale(0.225,0.225)" xlink:href="#f0_276" x="145.263671875" y="143.24869791666666"/></g><g><use fill="#000000" stroke="#000000" stroke-width="0"  fill-opacity="1" stroke-opacity="1" transform="matrix(1,0,0,1,908.8138077246903,76.46845389338216) scale(0.225,0.225)" xlink:href="#f2_5" x="-80" y="496.66666666666663"/></g><g><use fill="#000000" stroke="#000000" stroke-width="0"  fill-opacity="1" stroke-opacity="1" transform="matrix(1,0,0,1,767.4792522087417,65.9992275588674) scale(0.225,0.225)" xlink:href="#f2_83" x="-128" y="496.66666666666663"/></g><g><use fill="#000000" stroke="#000000" stroke-width="0"  fill-opacity="1" stroke-opacity="1" transform="matrix(1,0,0,1,639.2312296109366,42.44346830620924) scale(0.225,0.225)" xlink:href="#f2_76" x="-67" y="496.66666666666663"/></g><g><use fill="#000000" stroke="#000000" stroke-width="0"  fill-opacity="1" stroke-opacity="1" transform="matrix(1,0,0,1,379.64865149718275,70.76461439161) scale(0.225,0.225)" xlink:href="#f2_76" x="-67" y="496.66666666666663"/></g><g><use fill="#000000" stroke="#000000" stroke-width="0"  fill-opacity="1" stroke-opacity="1" transform="matrix(1,0,0,1,615.6754703582784,65.9992275588674) scale(0.225,0.225)" xlink:href="#f2_89" x="-64.5" y="496.66666666666663"/></g><g><use fill="#000000" stroke="#000000" stroke-width="0"  fill-opacity="1" stroke-opacity="1" transform="matrix(1,0,0,1,154.56028530511674,91.7030670606394) scale(0.225,0.225)" xlink:href="#f2_89" x="-64.5" y="496.66666666666663"/></g><g><use fill="#000000" stroke="#000000" stroke-width="0"  fill-opacity="1" stroke-opacity="1" transform="matrix(1,0,0,1,882.6407418884036,60.76461439161005) scale(0.225,0.225)" xlink:href="#f2_14" x="-65.5" y="496.66666666666663"/></g><g><use fill="#000000" stroke="#000000" stroke-width="0"  fill-opacity="1" stroke-opacity="1" transform="matrix(1,0,0,1,518.8351267640174,55.530001224352645) scale(0.225,0.225)" xlink:href="#f2_16" x="-66.5" y="496.66666666666663"/></g><g><use fill="#000000" stroke="#000000" stroke-width="0"  fill-opacity="1" stroke-opacity="1" transform="matrix(1,0,0,1,458.637075340558,81.7030670606394) scale(0.225,0.225)" xlink:href="#f2_2" x="-67.5" y="496.66666666666663"/></g><g><use fill="#000000" stroke="#000000" stroke-width="0"  fill-opacity="1" stroke-opacity="1" transform="matrix(1,0,0,1,835.0599970485729,96.93768022789675) scale(0.225,0.225)" xlink:href="#f2_2" x="-67.5" y="496.66666666666663"/></g><g><use fill="#000000" stroke="#000000" stroke-width="0"  fill-opacity="1" stroke-opacity="1" transform="matrix(1,0,0,1,45.102635127226904,113.11074606418367) scale(0.225,0.225)" xlink:href="#f2_3" x="-25" y="496.66666666666663"/></g><g><use fill="#000000" stroke="#000000" stroke-width="0"  fill-opacity="1" stroke-opacity="1" transform="matrix(1,0,0,1,474.3409148423299,-15.137276533621673) scale(0.225,0.225)" xlink:href="#f2_11" x="-178.00000000000003" y="496.66666666666663"/></g><g><use fill="#000000" stroke="#000000" stroke-width="0"  fill-opacity="1" stroke-opacity="1" transform="matrix(1,0,0,1,610.4408571910213,39.826161722580764) scale(0.225,0.225)" xlink:href="#f2_75" x="-66.5" y="496.66666666666663"/></g><g><use fill="#000000" stroke="#000000" stroke-width="0"  fill-opacity="1" stroke-opacity="1" transform="matrix(1,0,0,1,146.7083655542309,62.91269464072411) scale(0.225,0.225)" xlink:href="#f2_75" x="-66.5" y="496.66666666666663"/></g><g><use fill="#000000" stroke="#000000" stroke-width="0"  fill-opacity="1" stroke-opacity="1" transform="matrix(1,0,0,1,212.88071688874538,89.38431497827173) scale(0.225,0.225)" xlink:href="#f0_234" x="-813.4765625" y="157.89713541666666"/><use fill="#000000" stroke="#000000" stroke-width="0"  fill-opacity="1" stroke-opacity="1" transform="matrix(1,0,0,1,212.88071688874538,89.38431497827173) scale(0.225,0.225)" xlink:href="#f0_400" x="-364.2578125" y="164.73307291666666"/><use fill="#000000" stroke="#000000" stroke-width="0"  fill-opacity="1" stroke-opacity="1" transform="matrix(1,0,0,1,212.88071688874538,89.38431497827173) scale(0.225,0.225)" xlink:href="#f0_540" x="-18.06640625" y="150.08463541666666"/><use fill="#000000" stroke="#000000" stroke-width="0"  fill-opacity="1" stroke-opacity="1" transform="matrix(1,0,0,1,212.88071688874538,89.38431497827173) scale(0.225,0.225)" xlink:href="#f0_280" x="602.5390625" y="150.08463541666666"/></g><g><use fill="#000000" stroke="#000000" stroke-width="0"  fill-opacity="1" stroke-opacity="1" transform="matrix(1,0,0,1,280.19100131929315,70.76461439161) scale(0.225,0.225)" xlink:href="#f2_83" x="-128" y="496.66666666666663"/></g><g><use fill="#000000" stroke="#000000" stroke-width="0"  fill-opacity="1" stroke-opacity="1" transform="matrix(1,0,0,1,314.2159869064659,47.20885513895189) scale(0.225,0.225)" xlink:href="#f2_14" x="-65.5" y="496.66666666666663"/></g><g><use fill="#000000" stroke="#000000" stroke-width="0"  fill-opacity="1" stroke-opacity="1" transform="matrix(1,0,0,1,216.18439152812277,98.91600088385184) scale(0.225,0.225)" xlink:href="#f2_2" x="-67.5" y="496.66666666666663"/></g><g><use fill="#000000" stroke="#000000" stroke-width="0"  fill-opacity="1" stroke-opacity="1" transform="matrix(1,0,0,1,336.87656133294354,74.80933668310809) scale(0.14,0.14)" xlink:href="#f2_114" x="-67" y="497.1428571428573"/></g><g><use fill="#000000" stroke="#000000" stroke-width="0"  fill-opacity="1" stroke-opacity="1" transform="matrix(1,0,0,1,526.5640613329435,53.559336683108086) scale(0.14,0.14)" xlink:href="#f2_114" x="-67" y="497.1428571428573"/></g><g><use fill="#000000" stroke="#000000" stroke-width="0"  fill-opacity="1" stroke-opacity="1" transform="matrix(1,0,0,1,247.8125,90.13333333333335) scale(0.14,0.14)" xlink:href="#f2_28" x="-169.5" y="497.1428571428573"/></g><defs><path d="M449.22-24.41L449.22-24.41Q456.05-24.41 456.05-10.74L456.05-10.74Q456.05 24.41 437.50 24.41L437.50 24.41Q361.82 24.41 338.38-81.05L338.38-81.05Q336.43-51.27 329.10-38.57L329.10-38.57Q303.71 5.37 228.03 59.08L228.03 59.08Q148.44 115.23 102.54 115.23L102.54 115.23Q68.36 115.23 50.78 93.75L50.78 93.75Q36.13 76.66 36.13 51.76L36.13 51.76Q36.13 11.23 48.83-24.90L48.83-24.90Q59.57-56.15 67.38-56.15L67.38-56.15Q69.82-56.15 69.82-54.20L69.82-54.20Q69.82-53.22 61.04-29.54Q52.25-5.86 52.25 14.65L52.25 14.65Q52.25 43.46 64.94 53.71L64.94 53.71Q76.17 62.50 104.98 62.50L104.98 62.50Q160.64 62.50 251.95-9.28L251.95-9.28Q335.45-74.71 335.45-93.26L335.45-93.26Q335.45-109.38 314.45-167.48L314.45-167.48Q291.02-230.47 261.72-288.57L261.72-288.57Q252.44-306.64 252.44-310.55L252.44-310.55Q252.44-361.82 256.35-361.82L256.35-361.82Q258.79-361.82 266.60-351.07L266.60-351.07Q329.59-262.21 350.10-164.55L350.10-164.55Q354.00-138.67 364.26-87.40L364.26-87.40Q380.86-24.41 449.22-24.41Z" id="f0_234"/><path d="M283.20-126.95L283.20-126.95Q286.13-125 274.66-104.00Q263.18-83.01 260.99-82.03Q258.79-81.05 140.14-26.86L140.14-26.86Q24.90 23.93-12.21 23.93L-12.21 23.93Q-19.04 23.93-19.04 11.23L-19.04 11.23Q-19.04-23.93 0-23.93L0-23.93Q29.79-23.93 54.20-36.13L54.20-36.13Q30.76-50.78 14.16-79.10L14.16-79.10Q-4.88-108.89-4.88-136.23L-4.88-136.23Q-4.88-172.85 25.88-207.03L25.88-207.03Q60.06-244.14 106.93-244.14L106.93-244.14Q147.95-244.14 193.85-212.89L193.85-212.89Q211.91-202.15 208.98-196.78L208.98-196.78Q208.01-193.85 187.99-202.15L187.99-202.15Q175.78-207.03 146.00-207.03L146.00-207.03Q113.77-207.03 65.92-190.92L65.92-190.92Q21.00-176.76 21.00-169.92L21.00-169.92Q21.00-145.02 48.83-108.89L48.83-108.89Q83.01-65.92 124.02-65.92L124.02-65.92Q152.83-65.92 246.09-112.79L246.09-112.79Q279.79-129.88 283.20-126.95Z" id="f0_276"/><path d="M201.17-57.62L201.17-57.62Q201.17-51.27 189.94-32.71L189.94-32.71Q178.22-12.70 170.41-12.21L170.41-12.21Q161.13-11.23 132.32-22.95L132.32-22.95Q100.10-36.13 78.61-52.25L78.61-52.25Q43.46 24.41-11.72 24.41L-11.72 24.41Q-18.55 24.41-18.55 10.74L-18.55 10.74Q-18.55-24.41 0-24.41L0-24.41Q26.37-24.41 45.41-42.48L45.41-42.48Q60.06-56.15 80.08-91.31L80.08-91.31Q84.96-100.10 91.80-108.89L91.80-108.89Q93.26-108.89 97.17-105.96L97.17-105.96Q117.68-143.07 144.04-145.51L144.04-145.51Q164.55-147.46 180.18-125L180.18-125Q201.17-95.21 201.17-57.62ZM163.57-68.85L163.57-68.85Q161.62-81.54 147.46-89.84L147.46-89.84Q135.74-96.68 127.44-95.70L127.44-95.70Q115.23-94.73 113.77-88.87L113.77-88.87Q113.28-85.94 132.57-77.15Q151.86-68.36 163.57-68.85Z" id="f0_280"/><path d="M784.67-30.27L784.67-30.27Q784.67-27.83 774.90-6.84Q765.14 14.16 761.72 16.60L761.72 16.60Q749.51 23.93 602.54 73.24L602.54 73.24Q505.37 105.96 503.91 106.45L503.91 106.45Q462.89 121.58 462.89 130.37L462.89 130.37Q462.89 141.60 505.86 163.57L505.86 163.57Q526.37 173.83 546.88 181.15L546.88 181.15Q562.01 186.04 562.01 186.52L562.01 186.52Q562.01 192.38 559.57 213.38L559.57 213.38Q556.64 237.30 554.20 237.30L554.20 237.30Q544.43 237.30 524.41 233.40L524.41 233.40Q452.64 219.24 413.57 185.06L413.57 185.06Q352.05 130.86 343.26 26.86L343.26 26.86Q333.01 75.20 321.29 92.29L321.29 92.29Q291.02 136.23 225.10 182.13L225.10 182.13Q152.34 233.40 105.96 233.40L105.96 233.40Q77.15 233.40 59.08 212.40L59.08 212.40Q39.06 189.94 39.06 150.39L39.06 150.39Q39.06 104.98 65.92 46.39L65.92 46.39Q71.29 33.69 75.20 33.69L75.20 33.69Q78.13 33.69 78.13 37.11L78.13 37.11Q78.13 40.53 75.20 47.85L75.20 47.85Q58.59 94.24 58.59 123.54L58.59 123.54Q58.59 178.71 114.75 178.71L114.75 178.71Q164.55 178.71 238.77 125L238.77 125Q307.62 75.68 330.57 31.74L330.57 31.74Q333.98 25.88 333.98 13.67L333.98 13.67Q333.98-40.04 270.51-193.36L270.51-193.36Q261.72-214.36 261.72-217.77L261.72-217.77Q261.72-220.70 266.11-242.43Q270.51-264.16 271.97-264.16L271.97-264.16Q276.86-264.16 294.43-233.89L294.43-233.89Q348.14-139.16 361.33-14.16L361.33-14.16Q374.02 112.30 442.87 145.51L442.87 145.51Q449.22 95.21 495.12 68.85L495.12 68.85Q512.21 59.08 544.92 47.85L544.92 47.85Q586.43 33.69 598.63 28.32L598.63 28.32Q557.13 25.88 458.98 27.83L458.98 27.83Q375.98 29.79 375.98 28.32L375.98 28.32Q375.98 15.63 400.39-24.41L400.39-24.41Q400.39-24.41 433.11-22.46L433.11-22.46Q476.07-20.51 559.57-20.02L559.57-20.02Q617.68-19.53 708.98-25.88L708.98-25.88Q784.67-30.76 784.67-30.27Z" id="f0_372"/><path d="M346.19-24.41L346.19-24.41Q353.03-24.41 353.03-10.74L353.03-10.74Q353.03 23.93 334.47 24.41L334.47 24.41Q240.23 26.37 168.46 2.93L168.46 2.93Q168.95 23.93 164.06 40.77Q159.18 57.62 151.86 57.62L151.86 57.62Q134.77 57.62 116.70 42.48L116.70 42.48Q87.89 19.53 87.89-27.83L87.89-27.83Q87.89-39.55 89.84-52.73L89.84-52.73Q87.89-52.73 66.41-24.90L66.41-24.90Q34.18 17.58-13.67 17.58L-13.67 17.58Q-20.51 17.58-20.51 3.91L-20.51 3.91Q-20.51-31.25-1.95-31.25L-1.95-31.25Q39.06-31.25 80.57-81.54L80.57-81.54Q99.61-104.49 104.98-104.49L104.98-104.49Q105.96-104.49 116.21-88.38L116.21-88.38Q130.86-65.92 166.50-51.76L166.50-51.76Q236.82-24.41 346.19-24.41ZM146.97 4.88L146.97 4.88Q148.44 4.88 148.44 0.49L148.44 0.49Q148.44-3.91 146.48-6.35L146.48-6.35Q125.49-14.16 106.45-34.18L106.45-34.18Q107.91-20.02 122.07-7.57Q136.23 4.88 146.97 4.88Z" id="f0_400"/><path d="M639.16-133.79L639.16-133.79Q639.16-129.88 629.15-108.40Q619.14-86.91 616.21-86.91L616.21-86.91Q568.85-88.87 559.08-86.91L559.08-86.91Q555.18-69.82 564.94-53.22L564.94-53.22Q582.03-23.93 621.09-23.93L621.09-23.93Q626.95-23.93 626.95-11.23L626.95-11.23Q626.95 23.93 608.89 23.93L608.89 23.93Q581.05 23.93 562.50 5.37Q543.95-13.18 542.97-41.02L542.97-41.02Q541.99-51.76 548.83-85.94L548.83-85.94Q520.02-85.94 482.91-74.22L482.91-74.22Q346.19-23.93 273.93-2.93L273.93-2.93Q129.88 39.06-12.21 39.06L-12.21 39.06Q-19.04 39.06-19.04 24.90L-19.04 24.90Q-19.04-9.77 0-9.77L0-9.77Q131.84-9.77 283.20-49.80L283.20-49.80Q330.08-62.01 444.82-104.00L444.82-104.00Q411.13-111.82 340.82-128.91L340.82-128.91Q337.89-125.98 333.01-121.09L333.01-121.09Q305.18-125.98 262.21-127.93L262.21-127.93Q227.05-129.88 227.05-130.86L227.05-130.86Q225.10-132.81 236.08-151.86Q247.07-170.90 250-174.56Q252.93-178.22 274.90-184.08L274.90-184.08Q293.95-188.96 300.78-189.94L300.78-189.94Q313.96-190.92 354.00-179.20L354.00-179.20Q414.06-161.13 458.98-150.88L458.98-150.88Q527.83-136.23 596.19-134.77L596.19-134.77Q639.16-134.77 639.16-133.79Z" id="f0_540"/><path d="M138.18-186.04L138.18-186.04Q138.18-180.18 129.15-159.67Q120.12-139.16 118.16-138.18L118.16-138.18Q98.14-129.88 50.78-111.82L50.78-111.82Q51.76-99.12 48.83-99.12L48.83-99.12Q44.92-99.12 39.06-106.93L39.06-106.93Q-108.89-44.92-146.00 17.09L-146.00 17.09L-146.00-23.93Q-112.79-82.03 14.16-140.14L14.16-140.14Q-2.93-158.20-2.93-176.76L-2.93-176.76Q-2.93-244.14 49.80-244.14L49.80-244.14Q64.94-244.14 102.05-217.77L102.05-217.77Q138.18-191.89 138.18-186.04ZM84.96-168.95L84.96-168.95Q46.88-193.85 33.20-193.85L33.20-193.85Q12.21-193.85 12.21-184.08L12.21-184.08Q13.18-179.20 37.11-149.90L37.11-149.90Q61.04-160.16 84.96-168.95Z" id="f0_601"/><path d="M654.79-106.93L654.79-106.93Q657.23-106.93 642.58-83.98Q627.93-61.04 624.02-61.04L624.02-61.04Q623.05-61.04 606.93-64.94Q590.82-68.85 568.85-68.85L568.85-68.85Q503.91-68.85 339.84-26.86L339.84-26.86Q142.09 23.93-12.21 23.93L-12.21 23.93Q-19.04 23.93-19.04 11.23L-19.04 11.23Q-19.04-23.93 0-23.93L0-23.93Q115.23-23.93 271.00-55.18L271.00-55.18Q365.23-76.17 458.01-96.19L458.01-96.19Q416.02-108.89 337.89-136.23L337.89-136.23Q334.96-132.81 329.10-127.93L329.10-127.93Q298.83-138.18 257.81-142.09L257.81-142.09Q224.12-145.02 223.14-146.00L223.14-146.00Q222.17-146.97 235.11-166.50Q248.05-186.04 251.46-188.96Q254.88-191.89 276.86-196.78L276.86-196.78Q295.90-200.20 303.22-200.20L303.22-200.20Q316.89-200.20 355.96-185.06L355.96-185.06Q415.04-161.13 458.01-146.97L458.01-146.97Q586.91-106.93 654.79-106.93Z" id="f0_692"/><path d="M108.40-75.68L108.40-75.68Q108.40-53.71 103.52-30.76L103.52-30.76Q95.21 11.72 89.36 11.72L89.36 11.72Q85.94 11.72 84.96-5.86L84.96-5.86Q82.52-43.46 82.52-47.85L82.52-47.85Q73.24-139.65 35.64-355.96L35.64-355.96Q24.90-416.02 7.32-535.64L7.32-535.64Q-1.46-543.46 0-547.36L0-547.36Q3.91-558.11 12.21-579.10L12.21-579.10Q19.04-596.68 20.51-596.68L20.51-596.68Q23.44-596.68 49.80-540.04L49.80-540.04Q79.10-477.05 75.20-474.12L75.20-474.12Q71.29-471.68 60.06-483.89L60.06-483.89Q56.64-487.79 42.97-501.46L42.97-501.46Q60.06-411.13 92.77-213.87L92.77-213.87Q108.40-110.84 108.40-75.68ZM49.32-704.10L49.32-704.10Q50.29-702.64 46.14-691.65Q41.99-680.66 41.02-680.18L41.02-680.18Q-10.74-663.57-31.25-644.53L-31.25-644.53Q-37.11-638.67-37.11-645.51L-37.11-645.51Q-37.11-664.06-17.58-673.83L-17.58-673.83Q-32.23-681.64-32.23-701.17L-32.23-701.17Q-32.23-741.70 9.77-741.70L9.77-741.70Q28.32-741.70 28.32-724.61L28.32-724.61Q28.32-707.03 15.63-706.54L15.63-706.54Q13.18-720.70-1.95-720.70L-1.95-720.70Q-18.07-720.70-18.07-708.98L-18.07-708.98Q-18.07-689.94 14.16-689.94L14.16-689.94Q18.07-689.94 41.99-702.15L41.99-702.15Q48.34-705.57 49.32-704.10Z" id="f0_1187"/><path d="M134.77-24.41L134.77-24.41Q141.60-24.41 141.60-10.74L141.60-10.74Q141.60 24.41 123.05 24.41L123.05 24.41Q101.56 23.44 88.38 8.30L88.38 8.30Q80.08-0.98 75.68-25.39L75.68-25.39Q38.57 39.06-11.72 39.06L-11.72 39.06Q-18.55 39.06-18.55 25.39L-18.55 25.39Q-18.55-9.77 0-9.77L0-9.77Q34.67-11.72 55.66-32.23L55.66-32.23Q65.43-47.85 81.54-71.78L81.54-71.78Q89.84-83.50 94.24-81.05L94.24-81.05Q96.19-80.08 94.24-75.20L94.24-75.20Q85.94-56.15 103.52-37.11L103.52-37.11Q116.21-24.41 134.77-24.41ZM86.91 127.44L137.70 157.23L113.28 201.17L63.48 171.88L42.97 208.50L-7.81 178.71L16.60 134.77L66.41 164.06L86.91 127.44Z" id="f0_1321"/><path d="M131-609L131-609Q134-606 131-594L131-594Q129-582 125-582L125-582Q125-582 119-590Q113-598 106-598L106-598Q92-598 86-545.50Q80-493 75-494L75-494Q69-494 62-517L62-517Q54-546 35-562L35-562Q34-560 32-558L32-558Q29-557 15.50-564.50Q2-572 1-578L1-578Q-2-605 11-605L11-605Q35-606 62-554L62-554Q66-543 73-529L73-529Q76-554 81-579L81-579Q89-625 106-624L106-624Q119-624 131-609Z" id="f2_2"/><path d="M47-536L47-536Q50-536 48-522L48-522Q46-509 43-504L43-504Q37-495 28-494L28-494Q20-493 16-499L16-499Q4-516 6-547L6-547Q8-565 21-618L21-618Q23-625 26-629L26-629Q33-640 33-632L33-632Q33-629 30-620L30-620Q17-570 17-545L17-545Q17-527 22-521L22-521Q25-517 29-517L29-517Q39-517 43-531L43-531Q44-536 47-536Z" id="f2_3"/><path d="M102-509L102-509Q76-497 22-493L22-493Q18-493 17-495L17-495Q16-498 19-500L19-500Q54-515 110-542L110-542Q102-549 61-552L61-552Q22-555 12-553L12-553Q8-552 6-553L6-553Q4-554 7-558L7-558Q21-580 41-603L41-603Q80-611 141-593L141-593Q156-589 156-576L156-576Q156-562 135.50-538.50Q115-515 102-509Z" id="f2_5"/><path d="M180-324L180-324Q180-285 169-280L169-280Q165-282 166-285L166-285Q172-299 172-309L172-309Q172-339 128-387L128-387Q129-406 136-406L136-406Q142-406 159-383L159-383Q180-354 180-324ZM348-298L348-298Q348-276 314-225L314-225Q311-221 309-223L309-223Q307-226 309-230L309-230Q312-241 323-256L323-256Q332-268 335-281L335-281Q209-230 135-230L135-230Q92-230 43-245L43-245Q47-229 44-217L44-217Q41-203 36-203L36-203Q32-204 33-207L33-207Q36-214 36-219L36-219Q36-250 5-282L5-282Q7-290 11-298L11-298Q11-298 23-285L23-285Q51-254 136-253L136-253Q202-252 320-298L320-298Q338-305 340-305L340-305Q348-305 348-298Z" id="f2_11"/><path d="M121-53L121-53Q92-20 49-20L49-20Q7-20 7-47L7-47Q7-72 27-94L27-94Q30-97 62-123L62-123Q50-126 39-126L39-126Q18-126 10-119L10-119Q7-116 5-118L5-118Q3-119 5-123L5-123Q12-140 22-146L22-146Q29-150 50-150L50-150Q80-150 80-139L80-139Q80-116 48-92L48-92Q19-72 19-59L19-59Q19-53 30-47.50Q41-42 51-42L51-42Q89-42 116-58L116-58Q121-61 123-60L123-60Q126-59 121-53Z" id="f2_14"/><path d="M123-48L123-48Q91-13 40-13L40-13Q4-14 4-37L4-37Q4-48 15-69L15-69Q27-92 38-99L38-99Q18-112 18-124L18-124Q18-134 33.50-150.50Q49-167 62-167L62-167Q73-167 73-153L73-153Q73-149 70-142Q67-135 64-135L64-135Q62-136 61-139L61-139Q59-145 53-145L53-145Q50-145 43-141Q36-137 36-133L36-133Q36-120 64-120L64-120Q70-120 82-129L82-129Q90-136 95-135L95-135Q98-135 94-119L94-119Q92-115 84-111L84-111Q67-105 44-84L44-84Q19-63 19-53L19-53Q19-38 53-38L53-38Q81-38 118-54L118-54Q124-56 126-55L126-55Q128-53 123-48Z" id="f2_16"/><path d="M335-162L335-162Q335-131 324-131L324-131Q295-131 272-151L272-151Q269-135 257-120L257-120Q243-104 168-71L168-71Q106-44 94-41L94-41Q44-30 7-25L7-25Q4-25 2-25L2-25Q0-26 1-27L1-27Q1-28 6-29L6-29Q19-34 75-56L75-56Q139-81 168-93L168-93Q238-124 256-141L256-141Q266-151 269-159L269-159Q273-171 285-187Q297-203 305-203L305-203Q316-203 325.50-189Q335-175 335-162ZM318-156L318-156Q318-178 302-178L302-178Q289-178 289-169L289-169Q289-167 299.50-162Q310-157 318-156Z" id="f2_28"/><path d="M131-556L131-556Q132-556 124-543.50Q116-531 111-527L111-527Q83-515 39-493L39-493Q3-473 2-474L2-474Q-1-477 9-489L9-489Q18-500 27.50-507.50Q37-515 80.50-535.50Q124-556 131-556Z" id="f2_75"/><path d="M129-545L129-545Q128-542 125-532L125-532Q124-526 123-526L123-526Q121-527 119-529L119-529Q111-535 104-539L104-539Q89-516 59-498L59-498Q42-488 16-478L16-478Q2-472 0-476L0-476Q-2-478 15-488L15-488Q45-505 56-512L56-512Q80-528 91-544L91-544Q87-546 79-548L79-548Q60-555 60-568L60-568Q60-585 75-601Q90-617 102-617L102-617Q119-617 119-589L119-589Q119-573 112-558L112-558Q129-549 129-545ZM103-581L103-581Q103-594 91-594L91-594Q74-594 74-580L74-580Q74-575 100-563L100-563Q103-573 103-581Z" id="f2_76"/><path d="M252-612L252-612Q254-609 249.50-599.50Q245-590 243-589L243-589Q181-566 119-543L119-543Q40-513 5-493L5-493Q3-497 5-508L5-508Q7-518 10-520L10-520Q121-570 252-612Z" id="f2_83"/><path d="M125-534L125-534Q125-516 118-507L118-507Q105-493 85-505L85-505Q77-509 74-517L74-517Q71-523 68-518L68-518Q57-494 39-494L39-494Q31-494 24-499L24-499Q15-506 11-517L11-517Q4-539 6-569L6-569Q-2-568-2-573L-2-573Q-2-576 4-587Q10-598 11-598L11-598Q21-598 20-573L20-573Q19-546 22.50-532Q26-518 40-518L40-518Q49-518 57.50-526Q66-534 65-546L65-546Q62-575 60-579.50Q58-584 59-589L59-589Q60-592 62-600L62-600Q64-606 68-601L68-601Q71-596 74-586L74-586Q77-573 77-554L77-554Q78-540 84-532L84-532Q95-520 107-525L107-525Q111-527 111-531L111-531Q111-538 94-576L94-576Q92-580 92-586L92-586Q92-588 93-589L93-589Q97-606 100-606L100-606Q103-606 104-596L104-596Q104-591 115-567L115-567Q125-546 125-534Z" id="f2_89"/><path d="M55-640L55-640Q84-680 111-669L111-669Q126-663 129-649L129-649Q135-619 125-589L125-589Q117-569 95-536L95-536Q70-493 27-445L27-445Q11-427 6-430L6-430Q6-431 6-434L6-434Q10-441 19-453L19-453Q39-476 84-544L84-544Q106-584 103-610L103-610Q102-628 88-633L88-633Q79-637 71-631L71-631Q66-629 56-620L56-620Q48-614 47-615L47-615Q38-617 55-640Z" id="f2_114"/></defs></svg>